<svg width="452" height="40" viewBox="0 0 452 40" fill="none" xmlns="http://www.w3.org/2000/svg">
<g clip-path="url(#clip0_18172_44740)">
<path d="M82.1986 34.047V17.043C82.1986 13.2166 79.7742 11.9168 77.5587 11.9168C75.4001 11.9168 72.8726 13.2166 72.8726 16.8801V34.047H65.8571V17.043C65.8571 13.2166 63.4273 11.9168 61.2199 11.9168C59.0097 11.9168 56.5311 13.2166 56.5311 17.043V34.047H49.5156V5.93035H56.3684V8.52465C58.2016 6.63049 60.7887 5.60742 63.3758 5.60742C66.508 5.60742 69.0408 6.7309 70.8171 9.17052C73.1926 6.68205 75.7282 5.60742 79.2319 5.60742C82.0386 5.60742 84.566 6.52194 86.1362 8.09589C88.4033 10.351 89.206 12.9968 89.206 16.0742V34.047H82.1986Z" fill="#333994"/>
<path d="M109.002 34.047V31.6156C107.11 33.5124 105.331 34.3157 102.098 34.3157C98.9198 34.3157 96.5931 33.5124 94.9226 31.8381C93.4202 30.2696 92.6094 28.0036 92.6094 25.5314C92.6094 21.0348 95.6846 17.3768 102.207 17.3768H108.837V15.9711C108.837 12.8856 107.332 11.545 103.606 11.545C100.91 11.545 99.6683 12.1963 98.2147 13.8625L93.7375 9.49345C96.4927 6.47581 99.1883 5.60742 103.882 5.60742C111.752 5.60742 115.847 8.94799 115.847 15.5342V34.047H109.002ZM108.837 22.1692H103.286C100.753 22.1692 99.351 23.3659 99.351 25.355C99.351 27.3035 100.642 28.6034 103.389 28.6034C105.331 28.6034 106.57 28.4351 107.809 27.2574C108.563 26.5518 108.834 25.4147 108.834 23.6861V22.1692H108.837Z" fill="#333994"/>
<path d="M137.576 34.047V17.043C137.576 13.2166 135.154 11.9168 132.939 11.9168C130.723 11.9168 128.25 13.2166 128.25 17.043V34.047H121.234V5.93035H128.082V8.52465C129.92 6.57079 132.507 5.60742 135.095 5.60742C137.899 5.60742 140.16 6.52194 141.725 8.09589C143.989 10.351 144.589 12.9968 144.589 16.0742V34.047H137.576Z" fill="#333994"/>
<path d="M168.307 30.9197C166.583 32.7487 163.727 34.3715 159.581 34.3715C155.415 34.3715 152.619 32.746 150.892 30.9197C148.356 28.2792 147.711 25.0961 147.711 19.959C147.711 14.8925 148.356 11.7066 150.892 9.05263C152.622 7.2236 155.418 5.60352 159.581 5.60352C163.727 5.60352 166.583 7.2236 168.307 9.05263C170.84 11.7039 171.483 14.8925 171.483 19.959C171.483 25.0961 170.84 28.2792 168.307 30.9197ZM162.862 13.1612C162.051 12.3498 160.969 11.9183 159.581 11.9183C158.17 11.9183 157.137 12.3525 156.335 13.1612C154.878 14.6239 154.716 17.0418 154.716 19.959C154.716 22.8762 154.878 25.3539 156.335 26.8193C157.137 27.6252 158.168 28.0567 159.581 28.0567C160.969 28.0567 162.051 27.6252 162.862 26.8193C164.315 25.3539 164.475 22.8762 164.475 19.959C164.475 17.0445 164.315 14.6239 162.862 13.1612Z" fill="#333994"/>
<path d="M190.194 13.5939C189.123 12.5111 188.204 11.9195 186.479 11.9195C184.329 11.9195 181.948 13.5477 181.948 17.0972V34.047H174.938V5.93035H181.782V8.62506C183.135 7.00498 185.828 5.60742 188.855 5.60742C191.599 5.60742 193.541 6.30756 195.482 8.25328L190.194 13.5939Z" fill="#333994"/>
<path d="M212.791 34.047V31.6156C210.907 33.5124 209.13 34.3157 205.893 34.3157C202.712 34.3157 200.388 33.5124 198.717 31.8381C197.207 30.2696 196.398 28.0036 196.398 25.5314C196.398 21.0348 199.471 17.3768 205.996 17.3768H212.634V15.9711C212.634 12.8856 211.116 11.545 207.398 11.545C204.705 11.545 203.468 12.1963 202.007 13.8625L197.535 9.49345C200.282 6.47581 202.977 5.60742 207.674 5.60742C215.547 5.60742 219.644 8.94799 219.644 15.5342V34.047H212.791ZM212.637 22.1692H207.078C204.547 22.1692 203.14 23.3659 203.14 25.355C203.14 27.3035 204.442 28.6034 207.186 28.6034C209.13 28.6034 210.372 28.4351 211.609 27.2574C212.36 26.5518 212.637 25.4147 212.637 23.6861V22.1692Z" fill="#333994"/>
<path d="M256.631 34.047V17.043C256.631 13.2166 254.201 11.9168 251.991 11.9168C249.832 11.9168 247.299 13.2166 247.299 16.8801V34.047H240.284V17.043C240.284 13.2166 237.865 11.9168 235.655 11.9168C233.439 11.9168 230.963 13.2166 230.963 17.043V34.047H223.953V5.93035H230.801V8.52465C232.636 6.63049 235.223 5.60742 237.808 5.60742C240.937 5.60742 243.473 6.7309 245.249 9.17052C247.625 6.68205 250.16 5.60742 253.659 5.60742C256.465 5.60742 258.995 6.52194 260.557 8.09589C262.83 10.351 263.635 12.9968 263.635 16.0742V34.047H256.631Z" fill="#333994"/>
<path d="M283.427 34.047V31.6156C281.54 33.5124 279.766 34.3157 276.523 34.3157C273.342 34.3157 271.018 33.5124 269.358 31.8381C267.845 30.2696 267.031 28.0036 267.031 25.5314C267.031 21.0348 270.106 17.3768 276.631 17.3768H283.267V15.9711C283.267 12.8856 281.754 11.545 278.036 11.545C275.34 11.545 274.093 12.1963 272.645 13.8625L268.17 9.49345C270.92 6.47581 273.624 5.60742 278.31 5.60742C286.19 5.60742 290.28 8.94799 290.28 15.5342V34.047H283.427ZM283.267 22.1692H277.713C275.18 22.1692 273.778 23.3659 273.778 25.355C273.778 27.3035 275.077 28.6034 277.827 28.6034C279.769 28.6034 281.011 28.4351 282.245 27.2574C282.993 26.5518 283.267 25.4147 283.267 23.6861V22.1692Z" fill="#333994"/>
<path d="M311.9 5.05078C303.056 5.05078 296.391 11.504 296.391 20.0603C296.391 28.6166 303.056 35.0698 311.9 35.0698C320.743 35.0698 327.409 28.6193 327.409 20.0603C327.409 11.504 320.743 5.05078 311.9 5.05078ZM311.9 29.7428C306.408 29.7428 302.27 25.58 302.27 20.0603C302.27 14.5406 306.411 10.3778 311.9 10.3778C317.388 10.3778 321.529 14.5406 321.529 20.0603C321.529 25.58 317.391 29.7428 311.9 29.7428Z" fill="#00B8F1"/>
<path d="M349.519 24.177L334.398 5.75365L334.243 5.56641H330.352V34.5542H336.06V15.9436L351.181 34.367L351.336 34.5542H355.227V5.56641H349.519V24.177Z" fill="#00B8F1"/>
<path d="M365.858 5.56641H360.062V34.5515H378.449V29.4823H365.858V5.56641Z" fill="#00B8F1"/>
<path d="M382.562 10.5081H387.075V29.6125H382.562V34.5542H397.426V29.6125H392.87V10.5081H397.426V5.56641H382.562V10.5081Z" fill="#00B8F1"/>
<path d="M420.946 24.177L405.827 5.75365L405.67 5.56641H401.781V34.5542H407.487V15.9436L422.611 34.367L422.765 34.5542H426.657V5.56641H420.946V24.177Z" fill="#00B8F1"/>
<path d="M451.633 10.6356V5.56641H431.484V34.5515H451.633V29.4823H437.28V22.4212H448.498V17.5257H437.28V10.6356H451.633Z" fill="#00B8F1"/>
<path d="M0.375 7.26788V32.7333C0.375 36.6329 3.5614 39.8215 7.45559 39.8215H32.898C36.7922 39.8215 39.9786 36.6329 39.9786 32.7333V7.26788C39.9786 3.36829 36.7922 0.179688 32.898 0.179688H7.45559C3.5614 0.179687 0.375 3.371 0.375 7.26788Z" fill="#EC1C24"/>
<path d="M29.8124 27.1406H10.5312V30.7526H29.8124V27.1406Z" fill="white"/>
<mask id="mask0_18172_44740" style="mask-type:luminance" maskUnits="userSpaceOnUse" x="0" y="0" width="452" height="40">
<path d="M451.635 0.181641H0.375V39.8234H451.635V0.181641Z" fill="white"/>
</mask>
<g mask="url(#mask0_18172_44740)">
<g opacity="0.7">
<mask id="mask1_18172_44740" style="mask-type:luminance" maskUnits="userSpaceOnUse" x="24" y="8" width="6" height="18">
<path d="M29.9942 8.79688H24.8281V25.3423H29.9942V8.79688Z" fill="white"/>
</mask>
<g mask="url(#mask1_18172_44740)">
<mask id="mask2_18172_44740" style="mask-type:luminance" maskUnits="userSpaceOnUse" x="25" y="8" width="5" height="18">
<path d="M29.8156 8.86523H25.0156V25.1502H29.8156V8.86523Z" fill="white"/>
</mask>
<g mask="url(#mask2_18172_44740)">
<path d="M29.8183 8.86523L25.0156 17.0063L29.8183 25.1475V8.86523Z" fill="white"/>
</g>
</g>
</g>
</g>
<mask id="mask3_18172_44740" style="mask-type:luminance" maskUnits="userSpaceOnUse" x="0" y="0" width="452" height="40">
<path d="M451.635 0.181641H0.375V39.8234H451.635V0.181641Z" fill="white"/>
</mask>
<g mask="url(#mask3_18172_44740)">
<path d="M29.8151 8.86328H23.4396L20.1989 14.3612L16.961 8.86328H10.5312L15.3827 16.942L20.2152 25.1428L24.9989 17.0342L29.7988 8.89313L29.8151 8.86328Z" fill="white"/>
</g>
<mask id="mask4_18172_44740" style="mask-type:luminance" maskUnits="userSpaceOnUse" x="0" y="0" width="452" height="40">
<path d="M451.635 0.181641H0.375V39.8234H451.635V0.181641Z" fill="white"/>
</mask>
<g mask="url(#mask4_18172_44740)">
<g opacity="0.7">
<mask id="mask5_18172_44740" style="mask-type:luminance" maskUnits="userSpaceOnUse" x="10" y="8" width="6" height="18">
<path d="M15.5254 8.79688H10.3594V25.3423H15.5254V8.79688Z" fill="white"/>
</mask>
<g mask="url(#mask5_18172_44740)">
<mask id="mask6_18172_44740" style="mask-type:luminance" maskUnits="userSpaceOnUse" x="10" y="8" width="6" height="18">
<path d="M15.3827 8.86523H10.5312V25.1719H15.3827V8.86523Z" fill="white"/>
</mask>
<g mask="url(#mask6_18172_44740)">
<path d="M10.5312 8.86328V25.1726L15.3827 16.942L10.5312 8.86328Z" fill="white"/>
</g>
</g>
</g>
</g>
</g>
<defs>
<clipPath id="clip0_18172_44740">
<rect width="452" height="40" fill="white"/>
</clipPath>
</defs>
</svg>
