<?xml version="1.0" encoding="utf-8"?>
<!-- Generator: Adobe Illustrator 27.6.1, SVG Export Plug-In . SVG Version: 6.00 Build 0)  -->
<svg version="1.1" id="Layer_1" xmlns="http://www.w3.org/2000/svg" xmlns:xlink="http://www.w3.org/1999/xlink" x="0px" y="0px"
	 viewBox="0 0 1666.77 147.4" style="enable-background:new 0 0 1666.77 147.4;" xml:space="preserve">
<style type="text/css">
	.st0{fill:#333994;}
	.st1{fill:#00B8F1;}
	.st2{fill:#EC1C24;}
	.st3{fill:#FFFFFF;}
	.st4{fill:none;}
	.st5{opacity:0.7;clip-path:url(#SVGID_00000013191709306407981440000016551206640048031127_);enable-background:new    ;}
	.st6{clip-path:url(#SVGID_00000078738388277362640660000007327720474976155298_);}
	.st7{clip-path:url(#SVGID_00000027569744563946532380000011779727863339554183_);fill:#FFFFFF;}
	.st8{clip-path:url(#SVGID_00000113314110637128475790000015501867831024122767_);fill:#FFFFFF;}
	.st9{opacity:0.7;clip-path:url(#SVGID_00000150098884056355740430000012400852918265624503_);enable-background:new    ;}
	.st10{clip-path:url(#SVGID_00000096774339733607185540000008714907904797224584_);}
	.st11{clip-path:url(#SVGID_00000026129458048706801440000013513448621013983922_);fill:#FFFFFF;}
</style>
<g>
	<path class="st0" d="M303.1,125.46V62.8c0-14.1-8.94-18.89-17.11-18.89c-7.96,0-17.28,4.79-17.28,18.29v63.26h-25.87V62.8
		c0-14.1-8.96-18.89-17.1-18.89c-8.15,0-17.29,4.79-17.29,18.89v62.66h-25.87V21.85h25.27v9.56c6.76-6.98,16.3-10.75,25.84-10.75
		c11.55,0,20.89,4.14,27.44,13.13c8.76-9.17,18.11-13.13,31.03-13.13c10.35,0,19.67,3.37,25.46,9.17
		c8.36,8.31,11.32,18.06,11.32,29.4v66.23H303.1z"/>
	<path class="st0" d="M401.93,125.46v-8.96c-6.98,6.99-13.54,9.95-25.46,9.95c-11.72,0-20.3-2.96-26.46-9.13
		c-5.54-5.78-8.53-14.13-8.53-23.24c0-16.57,11.34-30.05,35.39-30.05h24.45v-5.18c0-11.37-5.55-16.31-19.29-16.31
		c-9.94,0-14.52,2.4-19.88,8.54l-16.51-16.1c10.16-11.12,20.1-14.32,37.41-14.32c29.02,0,44.12,12.31,44.12,36.58v68.22H401.93z
		 M401.32,81.69h-20.47c-9.34,0-14.51,4.41-14.51,11.74c0,7.18,4.76,11.97,14.89,11.97c7.16,0,11.73-0.62,16.3-4.96
		c2.78-2.6,3.78-6.79,3.78-13.16v-5.59H401.32z"/>
	<path class="st0" d="M507.29,125.46V62.8c0-14.1-8.93-18.89-17.1-18.89S472.9,48.7,472.9,62.8v62.66h-25.87V21.85h25.25v9.56
		c6.78-7.2,16.32-10.75,25.86-10.75c10.34,0,18.68,3.37,24.45,9.17c8.35,8.31,10.56,18.06,10.56,29.4v66.23H507.29z"/>
	<path class="st0" d="M620.64,113.94c-6.36,6.74-16.89,12.72-32.18,12.72c-15.36,0-25.67-5.99-32.04-12.72
		c-9.35-9.73-11.73-21.46-11.73-40.39c0-18.67,2.38-30.41,11.73-40.19c6.38-6.74,16.69-12.71,32.04-12.71
		c15.29,0,25.82,5.97,32.18,12.71c9.34,9.77,11.71,21.52,11.71,40.19C632.35,92.48,629.98,104.21,620.64,113.94 M600.56,48.5
		c-2.99-2.99-6.98-4.58-12.1-4.58c-5.2,0-9.01,1.6-11.97,4.58c-5.37,5.39-5.97,14.3-5.97,25.05s0.6,19.88,5.97,25.28
		c2.96,2.97,6.76,4.56,11.97,4.56c5.12,0,9.11-1.59,12.1-4.56c5.36-5.4,5.95-14.53,5.95-25.28
		C606.51,62.81,605.92,53.89,600.56,48.5"/>
	<path class="st0" d="M701.34,50.09c-3.95-3.99-7.34-6.17-13.7-6.17c-7.93,0-16.71,6-16.71,19.08v62.46h-25.85V21.85h25.24v9.93
		c4.99-5.97,14.92-11.12,26.08-11.12c10.12,0,17.28,2.58,24.44,9.75L701.34,50.09z"/>
	<path class="st0" d="M784.66,125.46v-8.96c-6.95,6.99-13.5,9.95-25.44,9.95c-11.73,0-20.3-2.96-26.46-9.13
		c-5.57-5.78-8.55-14.13-8.55-23.24c0-16.57,11.33-30.05,35.39-30.05h24.48v-5.18c0-11.37-5.6-16.31-19.31-16.31
		c-9.93,0-14.49,2.4-19.88,8.54l-16.49-16.1c10.13-11.12,20.07-14.32,37.39-14.32c29.03,0,44.14,12.31,44.14,36.58v68.22H784.66z
		 M784.09,81.69h-20.5c-9.33,0-14.52,4.41-14.52,11.74c0,7.18,4.8,11.97,14.92,11.97c7.17,0,11.75-0.62,16.31-4.96
		c2.77-2.6,3.79-6.79,3.79-13.16L784.09,81.69L784.09,81.69z"/>
	<path class="st0" d="M946.33,125.46V62.8c0-14.1-8.96-18.89-17.11-18.89c-7.96,0-17.3,4.79-17.3,18.29v63.26h-25.87V62.8
		c0-14.1-8.92-18.89-17.07-18.89c-8.17,0-17.3,4.79-17.3,18.89v62.66h-25.85V21.85h25.25v9.56c6.77-6.98,16.31-10.75,25.84-10.75
		c11.54,0,20.89,4.14,27.44,13.13c8.76-9.17,18.11-13.13,31.01-13.13c10.35,0,19.68,3.37,25.44,9.17
		c8.38,8.31,11.35,18.06,11.35,29.4v66.23H946.33z"/>
	<path class="st0" d="M1045.14,125.46v-8.96c-6.96,6.99-13.5,9.95-25.46,9.95c-11.73,0-20.3-2.96-26.42-9.13
		c-5.58-5.78-8.58-14.13-8.58-23.24c0-16.57,11.34-30.05,35.4-30.05h24.47v-5.18c0-11.37-5.58-16.31-19.29-16.31
		c-9.94,0-14.54,2.4-19.88,8.54l-16.5-16.1c10.14-11.12,20.11-14.32,37.39-14.32c29.06,0,44.14,12.31,44.14,36.58v68.22H1045.14z
		 M1044.55,81.69h-20.48c-9.34,0-14.51,4.41-14.51,11.74c0,7.18,4.79,11.97,14.93,11.97c7.16,0,11.74-0.62,16.29-4.96
		c2.76-2.6,3.77-6.79,3.77-13.16L1044.55,81.69L1044.55,81.69z"/>
	<path class="st1" d="M1150.13,18.61c-32.61,0-57.19,23.78-57.19,55.31s24.58,55.31,57.19,55.31s57.19-23.77,57.19-55.31
		C1207.32,42.39,1182.74,18.61,1150.13,18.61 M1150.13,109.6c-20.25,0-35.51-15.34-35.51-35.68s15.27-35.68,35.51-35.68
		s35.51,15.34,35.51,35.68S1170.38,109.6,1150.13,109.6"/>
	<polygon class="st1" points="1288.86,89.09 1233.1,21.2 1232.53,20.51 1218.18,20.51 1218.18,127.33 1239.23,127.33 1239.23,58.75 
		1294.99,126.64 1295.56,127.33 1309.91,127.33 1309.91,20.51 1288.86,20.51 	"/>
	<polygon class="st1" points="1349.1,20.51 1327.73,20.51 1327.73,127.32 1395.53,127.32 1395.53,108.64 1349.1,108.64 	"/>
	<polygon class="st1" points="1410.71,38.72 1427.35,38.72 1427.35,109.12 1410.71,109.12 1410.71,127.33 1465.52,127.33 
		1465.52,109.12 1448.72,109.12 1448.72,38.72 1465.52,38.72 1465.52,20.51 1410.71,20.51 	"/>
	<polygon class="st1" points="1552.23,89.09 1496.48,21.2 1495.9,20.51 1481.56,20.51 1481.56,127.33 1502.6,127.33 1502.6,58.75 
		1558.37,126.64 1558.94,127.33 1573.29,127.33 1573.29,20.51 1552.23,20.51 	"/>
	<polygon class="st1" points="1665.4,39.19 1665.4,20.51 1591.1,20.51 1591.1,127.32 1665.4,127.32 1665.4,108.64 1612.47,108.64 
		1612.47,82.62 1653.84,82.62 1653.84,64.58 1612.47,64.58 1612.47,39.19 	"/>
	<path class="st2" d="M1.37,26.78v93.84c0,14.37,11.75,26.12,26.11,26.12h93.82c14.36,0,26.11-11.75,26.11-26.12V26.78
		c0-14.37-11.75-26.12-26.11-26.12H27.48C13.12,0.66,1.37,12.42,1.37,26.78"/>
	<rect x="38.83" y="100.01" class="st3" width="71.1" height="13.31"/>
	<rect x="1.37" y="0.67" class="st4" width="1664.04" height="146.08"/>
	<g>
		<g>
			<defs>
				<rect id="SVGID_1_" x="1.37" y="0.67" width="1664.04" height="146.08"/>
			</defs>
			<clipPath id="SVGID_00000140735823018875800800000002645844479987478174_">
				<use xlink:href="#SVGID_1_"  style="overflow:visible;"/>
			</clipPath>
			<g style="opacity:0.7;clip-path:url(#SVGID_00000140735823018875800800000002645844479987478174_);enable-background:new    ;">
				<g>
					<g>
						<defs>
							<rect id="SVGID_00000152257038780959016010000006213680118253420189_" x="91.55" y="32.42" width="19.05" height="60.97"/>
						</defs>
						<clipPath id="SVGID_00000101799224611050256230000004287476321012646585_">
							<use xlink:href="#SVGID_00000152257038780959016010000006213680118253420189_"  style="overflow:visible;"/>
						</clipPath>
						<g style="clip-path:url(#SVGID_00000101799224611050256230000004287476321012646585_);">
							<g>
								<defs>
									<rect id="SVGID_00000171679793897405768640000013749568707632218538_" x="92.24" y="32.67" width="17.7" height="60.01"/>
								</defs>
								<clipPath id="SVGID_00000176744111312300045370000009976710489455241886_">
									<use xlink:href="#SVGID_00000171679793897405768640000013749568707632218538_"  style="overflow:visible;"/>
								</clipPath>
								<polygon style="clip-path:url(#SVGID_00000176744111312300045370000009976710489455241886_);fill:#FFFFFF;" points="
									109.94,32.67 92.23,62.67 109.94,92.67 								"/>
							</g>
						</g>
					</g>
				</g>
			</g>
		</g>
		<g>
			<defs>
				<rect id="SVGID_00000178925077533633315880000013109308058030343819_" x="1.37" y="0.67" width="1664.04" height="146.08"/>
			</defs>
			<clipPath id="SVGID_00000025426134132687354060000001877898682390322077_">
				<use xlink:href="#SVGID_00000178925077533633315880000013109308058030343819_"  style="overflow:visible;"/>
			</clipPath>
			<polygon style="clip-path:url(#SVGID_00000025426134132687354060000001877898682390322077_);fill:#FFFFFF;" points="
				109.94,32.66 86.43,32.66 74.48,52.92 62.54,32.66 38.83,32.66 56.72,62.43 74.54,92.65 92.18,62.77 92.18,62.77 109.88,32.77 
							"/>
		</g>
	</g>
	<g>
		<g>
			<defs>
				<rect id="SVGID_00000005988011308355118340000004731687061569929140_" x="1.37" y="0.67" width="1664.04" height="146.08"/>
			</defs>
			<clipPath id="SVGID_00000047776085430658717890000016182398154638263172_">
				<use xlink:href="#SVGID_00000005988011308355118340000004731687061569929140_"  style="overflow:visible;"/>
			</clipPath>
			<g style="opacity:0.7;clip-path:url(#SVGID_00000047776085430658717890000016182398154638263172_);enable-background:new    ;">
				<g>
					<g>
						<defs>
							<rect id="SVGID_00000082329724159276864760000006373098392346977711_" x="38.2" y="32.42" width="19.05" height="60.97"/>
						</defs>
						<clipPath id="SVGID_00000154393043769188373610000018014162709601269900_">
							<use xlink:href="#SVGID_00000082329724159276864760000006373098392346977711_"  style="overflow:visible;"/>
						</clipPath>
						<g style="clip-path:url(#SVGID_00000154393043769188373610000018014162709601269900_);">
							<g>
								<defs>
									<rect id="SVGID_00000135668337937998267580000001422949074787877033_" x="38.83" y="32.67" width="17.89" height="60.09"/>
								</defs>
								<clipPath id="SVGID_00000131355912835178478930000009506472746246892948_">
									<use xlink:href="#SVGID_00000135668337937998267580000001422949074787877033_"  style="overflow:visible;"/>
								</clipPath>
								<polygon style="clip-path:url(#SVGID_00000131355912835178478930000009506472746246892948_);fill:#FFFFFF;" points="
									38.83,32.66 38.83,92.76 56.72,62.43 								"/>
							</g>
						</g>
					</g>
				</g>
			</g>
		</g>
	</g>
</g>
</svg>
